<svg width="114" height="36" viewBox="0 0 114 36" fill="none" xmlns="http://www.w3.org/2000/svg">
<path d="M10.6 8.90399V23.016H16.24V27H5.896V8.90399H10.6Z" fill="black"/>
<path d="M24.8219 17.952C24.8219 18.672 24.9579 19.336 25.2299 19.944C25.5019 20.552 25.8699 21.08 26.3339 21.528C26.7979 21.976 27.3339 22.328 27.9419 22.584C28.5659 22.824 29.2219 22.944 29.9099 22.944C30.5979 22.944 31.2459 22.824 31.8539 22.584C32.4779 22.328 33.0219 21.976 33.4859 21.528C33.9659 21.08 34.3419 20.552 34.6139 19.944C34.8859 19.336 35.0219 18.672 35.0219 17.952C35.0219 17.232 34.8859 16.568 34.6139 15.96C34.3419 15.352 33.9659 14.824 33.4859 14.376C33.0219 13.928 32.4779 13.584 31.8539 13.344C31.2459 13.088 30.5979 12.96 29.9099 12.96C29.2219 12.96 28.5659 13.088 27.9419 13.344C27.3339 13.584 26.7979 13.928 26.3339 14.376C25.8699 14.824 25.5019 15.352 25.2299 15.96C24.9579 16.568 24.8219 17.232 24.8219 17.952ZM19.9019 17.952C19.9019 16.608 20.1499 15.36 20.6459 14.208C21.1419 13.04 21.8299 12.024 22.7099 11.16C23.5899 10.296 24.6379 9.62399 25.8539 9.14399C27.0859 8.64799 28.4379 8.39999 29.9099 8.39999C31.3659 8.39999 32.7099 8.64799 33.9419 9.14399C35.1739 9.62399 36.2299 10.296 37.1099 11.16C38.0059 12.024 38.7019 13.04 39.1979 14.208C39.6939 15.36 39.9419 16.608 39.9419 17.952C39.9419 19.296 39.6939 20.552 39.1979 21.72C38.7019 22.872 38.0059 23.88 37.1099 24.744C36.2299 25.608 35.1739 26.288 33.9419 26.784C32.7099 27.264 31.3659 27.504 29.9099 27.504C28.4379 27.504 27.0859 27.264 25.8539 26.784C24.6379 26.288 23.5899 25.608 22.7099 24.744C21.8299 23.88 21.1419 22.872 20.6459 21.72C20.1499 20.552 19.9019 19.296 19.9019 17.952Z" fill="black"/>
<path d="M54.1212 16.872H63.4572C63.4572 17.832 63.4172 18.704 63.3372 19.488C63.2572 20.272 63.0972 21 62.8572 21.672C62.5212 22.616 62.0652 23.456 61.4892 24.192C60.9132 24.912 60.2332 25.52 59.4492 26.016C58.6812 26.496 57.8332 26.864 56.9052 27.12C55.9772 27.376 55.0012 27.504 53.9772 27.504C52.5692 27.504 51.2812 27.272 50.1132 26.808C48.9612 26.344 47.9692 25.696 47.1372 24.864C46.3052 24.016 45.6572 23.008 45.1932 21.84C44.7292 20.656 44.4972 19.352 44.4972 17.928C44.4972 16.52 44.7212 15.232 45.1692 14.064C45.6332 12.88 46.2812 11.872 47.1132 11.04C47.9612 10.208 48.9772 9.55999 50.1612 9.09599C51.3452 8.63199 52.6652 8.39999 54.1212 8.39999C56.0092 8.39999 57.6652 8.80799 59.0892 9.62399C60.5132 10.44 61.6412 11.704 62.4732 13.416L58.0092 15.264C57.5932 14.272 57.0492 13.56 56.3772 13.128C55.7212 12.696 54.9692 12.48 54.1212 12.48C53.4172 12.48 52.7772 12.616 52.2012 12.888C51.6252 13.144 51.1292 13.52 50.7132 14.016C50.3132 14.496 49.9932 15.08 49.7532 15.768C49.5292 16.456 49.4172 17.224 49.4172 18.072C49.4172 18.84 49.5132 19.552 49.7052 20.208C49.9132 20.864 50.2172 21.432 50.6172 21.912C51.0172 22.392 51.5132 22.768 52.1052 23.04C52.6972 23.296 53.3852 23.424 54.1692 23.424C54.6332 23.424 55.0812 23.376 55.5132 23.28C55.9452 23.168 56.3292 23 56.6652 22.776C57.0172 22.536 57.3052 22.232 57.5292 21.864C57.7532 21.496 57.9052 21.048 57.9852 20.52H54.1212V16.872Z" fill="black"/>
<path d="M72.9344 17.952C72.9344 18.672 73.0704 19.336 73.3424 19.944C73.6144 20.552 73.9824 21.08 74.4464 21.528C74.9104 21.976 75.4464 22.328 76.0544 22.584C76.6784 22.824 77.3344 22.944 78.0224 22.944C78.7104 22.944 79.3584 22.824 79.9664 22.584C80.5904 22.328 81.1344 21.976 81.5984 21.528C82.0784 21.08 82.4544 20.552 82.7264 19.944C82.9984 19.336 83.1344 18.672 83.1344 17.952C83.1344 17.232 82.9984 16.568 82.7264 15.96C82.4544 15.352 82.0784 14.824 81.5984 14.376C81.1344 13.928 80.5904 13.584 79.9664 13.344C79.3584 13.088 78.7104 12.96 78.0224 12.96C77.3344 12.96 76.6784 13.088 76.0544 13.344C75.4464 13.584 74.9104 13.928 74.4464 14.376C73.9824 14.824 73.6144 15.352 73.3424 15.96C73.0704 16.568 72.9344 17.232 72.9344 17.952ZM68.0144 17.952C68.0144 16.608 68.2624 15.36 68.7584 14.208C69.2544 13.04 69.9424 12.024 70.8224 11.16C71.7024 10.296 72.7504 9.62399 73.9664 9.14399C75.1984 8.64799 76.5504 8.39999 78.0224 8.39999C79.4784 8.39999 80.8224 8.64799 82.0544 9.14399C83.2864 9.62399 84.3424 10.296 85.2224 11.16C86.1184 12.024 86.8144 13.04 87.3104 14.208C87.8064 15.36 88.0544 16.608 88.0544 17.952C88.0544 19.296 87.8064 20.552 87.3104 21.72C86.8144 22.872 86.1184 23.88 85.2224 24.744C84.3424 25.608 83.2864 26.288 82.0544 26.784C80.8224 27.264 79.4784 27.504 78.0224 27.504C76.5504 27.504 75.1984 27.264 73.9664 26.784C72.7504 26.288 71.7024 25.608 70.8224 24.744C69.9424 23.88 69.2544 22.872 68.7584 21.72C68.2624 20.552 68.0144 19.296 68.0144 17.952Z" fill="black"/>
</svg>
